<mxfile host="app.diagrams.net" agent="Mozilla/5.0 (Windows NT 10.0; Win64; x64) AppleWebKit/537.36 (KHTML, like Gecko) Chrome/137.0.0.0 Safari/537.36" version="27.1.4">
  <diagram name="PÃ¡gina-1" id="TfV-9EqC5k9P0yQrw0pO">
    <mxGraphModel dx="1034" dy="411" grid="0" gridSize="10" guides="1" tooltips="1" connect="1" arrows="1" fold="1" page="0" pageScale="1" pageWidth="827" pageHeight="1169" math="0" shadow="0">
      <root>
        <mxCell id="0" />
        <mxCell id="1" parent="0" />
        <mxCell id="s_AnNdae9k4vIC2xzrpU-17" style="edgeStyle=orthogonalEdgeStyle;rounded=0;orthogonalLoop=1;jettySize=auto;html=1;exitX=1;exitY=0.5;exitDx=0;exitDy=0;entryX=0;entryY=0.5;entryDx=0;entryDy=0;endArrow=none;startFill=0;shadow=1;" edge="1" parent="1" source="s_AnNdae9k4vIC2xzrpU-1" target="s_AnNdae9k4vIC2xzrpU-11">
          <mxGeometry relative="1" as="geometry" />
        </mxCell>
        <mxCell id="s_AnNdae9k4vIC2xzrpU-19" style="edgeStyle=orthogonalEdgeStyle;rounded=0;orthogonalLoop=1;jettySize=auto;html=1;entryX=0.5;entryY=0;entryDx=0;entryDy=0;endArrow=none;startFill=0;shadow=1;" edge="1" parent="1" source="s_AnNdae9k4vIC2xzrpU-1" target="s_AnNdae9k4vIC2xzrpU-6">
          <mxGeometry relative="1" as="geometry" />
        </mxCell>
        <mxCell id="s_AnNdae9k4vIC2xzrpU-1" value="evento" style="rounded=0;whiteSpace=wrap;html=1;shadow=1;" vertex="1" parent="1">
          <mxGeometry x="519" y="379" width="72" height="34" as="geometry" />
        </mxCell>
        <mxCell id="s_AnNdae9k4vIC2xzrpU-2" value="cliente" style="rounded=0;whiteSpace=wrap;html=1;shadow=1;" vertex="1" parent="1">
          <mxGeometry x="742" y="379" width="72" height="34" as="geometry" />
        </mxCell>
        <mxCell id="s_AnNdae9k4vIC2xzrpU-3" value="presentador" style="rounded=0;whiteSpace=wrap;html=1;shadow=1;" vertex="1" parent="1">
          <mxGeometry x="519" y="540" width="72" height="34" as="geometry" />
        </mxCell>
        <mxCell id="s_AnNdae9k4vIC2xzrpU-13" style="edgeStyle=orthogonalEdgeStyle;rounded=0;orthogonalLoop=1;jettySize=auto;html=1;entryX=0.5;entryY=0;entryDx=0;entryDy=0;endArrow=none;startFill=0;shadow=1;" edge="1" parent="1" source="s_AnNdae9k4vIC2xzrpU-4" target="s_AnNdae9k4vIC2xzrpU-12">
          <mxGeometry relative="1" as="geometry" />
        </mxCell>
        <mxCell id="s_AnNdae9k4vIC2xzrpU-15" style="edgeStyle=orthogonalEdgeStyle;rounded=0;orthogonalLoop=1;jettySize=auto;html=1;entryX=0;entryY=0.5;entryDx=0;entryDy=0;endArrow=none;startFill=0;shadow=1;" edge="1" parent="1" source="s_AnNdae9k4vIC2xzrpU-4" target="s_AnNdae9k4vIC2xzrpU-10">
          <mxGeometry relative="1" as="geometry" />
        </mxCell>
        <mxCell id="s_AnNdae9k4vIC2xzrpU-4" value="animador" style="rounded=0;whiteSpace=wrap;html=1;shadow=1;" vertex="1" parent="1">
          <mxGeometry x="301" y="379" width="72" height="34" as="geometry" />
        </mxCell>
        <mxCell id="s_AnNdae9k4vIC2xzrpU-5" value="disfraz" style="rounded=0;whiteSpace=wrap;html=1;shadow=1;" vertex="1" parent="1">
          <mxGeometry x="301" y="540" width="72" height="34" as="geometry" />
        </mxCell>
        <mxCell id="s_AnNdae9k4vIC2xzrpU-20" style="edgeStyle=orthogonalEdgeStyle;rounded=0;orthogonalLoop=1;jettySize=auto;html=1;entryX=0.5;entryY=0;entryDx=0;entryDy=0;endArrow=none;startFill=0;shadow=1;" edge="1" parent="1" source="s_AnNdae9k4vIC2xzrpU-6" target="s_AnNdae9k4vIC2xzrpU-3">
          <mxGeometry relative="1" as="geometry" />
        </mxCell>
        <mxCell id="s_AnNdae9k4vIC2xzrpU-6" value="tiene" style="rhombus;whiteSpace=wrap;html=1;shadow=1;" vertex="1" parent="1">
          <mxGeometry x="529" y="455" width="52" height="40" as="geometry" />
        </mxCell>
        <mxCell id="s_AnNdae9k4vIC2xzrpU-16" style="edgeStyle=orthogonalEdgeStyle;rounded=0;orthogonalLoop=1;jettySize=auto;html=1;exitX=1;exitY=0.5;exitDx=0;exitDy=0;entryX=0;entryY=0.5;entryDx=0;entryDy=0;endArrow=none;startFill=0;shadow=1;" edge="1" parent="1" source="s_AnNdae9k4vIC2xzrpU-10" target="s_AnNdae9k4vIC2xzrpU-1">
          <mxGeometry relative="1" as="geometry" />
        </mxCell>
        <mxCell id="s_AnNdae9k4vIC2xzrpU-10" value="participa" style="rhombus;whiteSpace=wrap;html=1;shadow=1;" vertex="1" parent="1">
          <mxGeometry x="414" y="376" width="64" height="40" as="geometry" />
        </mxCell>
        <mxCell id="s_AnNdae9k4vIC2xzrpU-18" style="edgeStyle=orthogonalEdgeStyle;rounded=0;orthogonalLoop=1;jettySize=auto;html=1;exitX=1;exitY=0.5;exitDx=0;exitDy=0;entryX=0;entryY=0.5;entryDx=0;entryDy=0;endArrow=none;startFill=0;shadow=1;" edge="1" parent="1" source="s_AnNdae9k4vIC2xzrpU-11" target="s_AnNdae9k4vIC2xzrpU-2">
          <mxGeometry relative="1" as="geometry" />
        </mxCell>
        <mxCell id="s_AnNdae9k4vIC2xzrpU-11" value="contrata" style="rhombus;whiteSpace=wrap;html=1;shadow=1;" vertex="1" parent="1">
          <mxGeometry x="637" y="375" width="59" height="42" as="geometry" />
        </mxCell>
        <mxCell id="s_AnNdae9k4vIC2xzrpU-14" style="edgeStyle=orthogonalEdgeStyle;rounded=0;orthogonalLoop=1;jettySize=auto;html=1;exitX=0.5;exitY=1;exitDx=0;exitDy=0;entryX=0.5;entryY=0;entryDx=0;entryDy=0;endArrow=none;startFill=0;shadow=1;" edge="1" parent="1" source="s_AnNdae9k4vIC2xzrpU-12" target="s_AnNdae9k4vIC2xzrpU-5">
          <mxGeometry relative="1" as="geometry" />
        </mxCell>
        <mxCell id="s_AnNdae9k4vIC2xzrpU-12" value="usa" style="rhombus;whiteSpace=wrap;html=1;shadow=1;" vertex="1" parent="1">
          <mxGeometry x="311" y="455" width="52" height="40" as="geometry" />
        </mxCell>
        <mxCell id="s_AnNdae9k4vIC2xzrpU-21" value="&lt;font style=&quot;font-size: 9px;&quot;&gt;(1,m)&lt;/font&gt;" style="text;html=1;align=center;verticalAlign=middle;resizable=0;points=[];autosize=1;strokeColor=none;fillColor=none;shadow=1;" vertex="1" parent="1">
          <mxGeometry x="584" y="376" width="39" height="26" as="geometry" />
        </mxCell>
        <mxCell id="s_AnNdae9k4vIC2xzrpU-22" value="&lt;font style=&quot;font-size: 9px;&quot;&gt;(m,1)&lt;/font&gt;" style="text;html=1;align=center;verticalAlign=middle;resizable=0;points=[];autosize=1;strokeColor=none;fillColor=none;shadow=1;" vertex="1" parent="1">
          <mxGeometry x="331" y="406" width="39" height="26" as="geometry" />
        </mxCell>
        <mxCell id="s_AnNdae9k4vIC2xzrpU-23" value="&lt;font style=&quot;font-size: 9px;&quot;&gt;(m,1)&lt;/font&gt;" style="text;html=1;align=center;verticalAlign=middle;resizable=0;points=[];autosize=1;strokeColor=none;fillColor=none;shadow=1;" vertex="1" parent="1">
          <mxGeometry x="331" y="517" width="39" height="26" as="geometry" />
        </mxCell>
        <mxCell id="s_AnNdae9k4vIC2xzrpU-24" value="&lt;font style=&quot;font-size: 9px;&quot;&gt;(1,m)&lt;/font&gt;" style="text;html=1;align=center;verticalAlign=middle;resizable=0;points=[];autosize=1;strokeColor=none;fillColor=none;shadow=1;" vertex="1" parent="1">
          <mxGeometry x="708" y="375" width="39" height="26" as="geometry" />
        </mxCell>
        <mxCell id="s_AnNdae9k4vIC2xzrpU-25" value="&lt;font style=&quot;font-size: 9px;&quot;&gt;(m,m)&lt;/font&gt;" style="text;html=1;align=center;verticalAlign=middle;resizable=0;points=[];autosize=1;strokeColor=none;fillColor=none;shadow=1;" vertex="1" parent="1">
          <mxGeometry x="484" y="375" width="42" height="26" as="geometry" />
        </mxCell>
        <mxCell id="s_AnNdae9k4vIC2xzrpU-26" value="&lt;font style=&quot;font-size: 9px;&quot;&gt;(1,1)&lt;/font&gt;" style="text;html=1;align=center;verticalAlign=middle;resizable=0;points=[];autosize=1;strokeColor=none;fillColor=none;shadow=1;" vertex="1" parent="1">
          <mxGeometry x="551" y="517" width="37" height="26" as="geometry" />
        </mxCell>
        <mxCell id="s_AnNdae9k4vIC2xzrpU-27" value="&lt;font style=&quot;font-size: 9px;&quot;&gt;(1,1)&lt;/font&gt;" style="text;html=1;align=center;verticalAlign=middle;resizable=0;points=[];autosize=1;strokeColor=none;fillColor=none;shadow=1;" vertex="1" parent="1">
          <mxGeometry x="547" y="406" width="37" height="26" as="geometry" />
        </mxCell>
        <mxCell id="s_AnNdae9k4vIC2xzrpU-28" value="&lt;font style=&quot;font-size: 9px;&quot;&gt;(m,m)&lt;/font&gt;" style="text;html=1;align=center;verticalAlign=middle;resizable=0;points=[];autosize=1;strokeColor=none;fillColor=none;shadow=1;" vertex="1" parent="1">
          <mxGeometry x="366" y="375" width="42" height="26" as="geometry" />
        </mxCell>
        <mxCell id="s_AnNdae9k4vIC2xzrpU-30" value="&lt;u&gt;cod_animador&lt;/u&gt;" style="ellipse;whiteSpace=wrap;html=1;shadow=1;" vertex="1" parent="1">
          <mxGeometry x="282" y="309" width="96" height="32" as="geometry" />
        </mxCell>
        <mxCell id="s_AnNdae9k4vIC2xzrpU-31" value="dni" style="ellipse;whiteSpace=wrap;html=1;shadow=1;" vertex="1" parent="1">
          <mxGeometry x="236" y="334" width="46" height="25" as="geometry" />
        </mxCell>
        <mxCell id="s_AnNdae9k4vIC2xzrpU-32" value="apellido" style="ellipse;whiteSpace=wrap;html=1;shadow=1;" vertex="1" parent="1">
          <mxGeometry x="216" y="373" width="66" height="37" as="geometry" />
        </mxCell>
        <mxCell id="s_AnNdae9k4vIC2xzrpU-33" value="&lt;u&gt;cod_disfraz&lt;/u&gt;" style="ellipse;whiteSpace=wrap;html=1;shadow=1;" vertex="1" parent="1">
          <mxGeometry x="214" y="543" width="66" height="37" as="geometry" />
        </mxCell>
        <mxCell id="s_AnNdae9k4vIC2xzrpU-34" value="personaje" style="ellipse;whiteSpace=wrap;html=1;shadow=1;" vertex="1" parent="1">
          <mxGeometry x="250" y="599" width="66" height="37" as="geometry" />
        </mxCell>
        <mxCell id="s_AnNdae9k4vIC2xzrpU-35" value="precio_alquiler" style="ellipse;whiteSpace=wrap;html=1;shadow=1;" vertex="1" parent="1">
          <mxGeometry x="322" y="601" width="86" height="37" as="geometry" />
        </mxCell>
        <mxCell id="s_AnNdae9k4vIC2xzrpU-36" value="dni" style="ellipse;whiteSpace=wrap;html=1;shadow=1;" vertex="1" parent="1">
          <mxGeometry x="462" y="562" width="30" height="18" as="geometry" />
        </mxCell>
        <mxCell id="s_AnNdae9k4vIC2xzrpU-37" value="apellido" style="ellipse;whiteSpace=wrap;html=1;shadow=1;" vertex="1" parent="1">
          <mxGeometry x="455" y="590" width="66" height="37" as="geometry" />
        </mxCell>
        <mxCell id="s_AnNdae9k4vIC2xzrpU-38" value="aÃ±o_inicio" style="ellipse;whiteSpace=wrap;html=1;shadow=1;" vertex="1" parent="1">
          <mxGeometry x="584" y="593" width="76" height="36" as="geometry" />
        </mxCell>
        <mxCell id="s_AnNdae9k4vIC2xzrpU-39" value="tipo_evento" style="ellipse;whiteSpace=wrap;html=1;shadow=1;" vertex="1" parent="1">
          <mxGeometry x="626" y="552.5" width="66" height="37" as="geometry" />
        </mxCell>
        <mxCell id="s_AnNdae9k4vIC2xzrpU-40" value="cod_presentador" style="ellipse;whiteSpace=wrap;html=1;shadow=1;" vertex="1" parent="1">
          <mxGeometry x="502" y="627" width="102" height="33" as="geometry" />
        </mxCell>
        <mxCell id="s_AnNdae9k4vIC2xzrpU-42" value="apellido" style="ellipse;whiteSpace=wrap;html=1;shadow=1;" vertex="1" parent="1">
          <mxGeometry x="835" y="341" width="66" height="37" as="geometry" />
        </mxCell>
        <mxCell id="s_AnNdae9k4vIC2xzrpU-43" value="domicilio_legal" style="ellipse;whiteSpace=wrap;html=1;shadow=1;" vertex="1" parent="1">
          <mxGeometry x="835" y="393" width="85" height="44" as="geometry" />
        </mxCell>
        <mxCell id="s_AnNdae9k4vIC2xzrpU-46" value="" style="group;shadow=1;" vertex="1" connectable="0" parent="1">
          <mxGeometry x="763" y="432" width="85" height="44" as="geometry" />
        </mxCell>
        <mxCell id="s_AnNdae9k4vIC2xzrpU-45" value="" style="ellipse;whiteSpace=wrap;html=1;shadow=1;" vertex="1" parent="s_AnNdae9k4vIC2xzrpU-46">
          <mxGeometry width="85" height="44" as="geometry" />
        </mxCell>
        <mxCell id="s_AnNdae9k4vIC2xzrpU-44" value="telefono&lt;span style=&quot;color: rgba(0, 0, 0, 0); font-family: monospace; font-size: 0px; text-align: start; text-wrap-mode: nowrap;&quot;&gt;%3CmxGraphModel%3E%3Croot%3E%3CmxCell%20id%3D%220%22%2F%3E%3CmxCell%20id%3D%221%22%20parent%3D%220%22%2F%3E%3CmxCell%20id%3D%222%22%20value%3D%22domicilio_legal%22%20style%3D%22ellipse%3BwhiteSpace%3Dwrap%3Bhtml%3D1%3B%22%20vertex%3D%221%22%20parent%3D%221%22%3E%3CmxGeometry%20x%3D%22826%22%20y%3D%22362%22%20width%3D%2285%22%20height%3D%2244%22%20as%3D%22geometry%22%2F%3E%3C%2FmxCell%3E%3C%2Froot%3E%3C%2FmxGraphModel%3E&lt;/span&gt;" style="ellipse;whiteSpace=wrap;html=1;shadow=1;" vertex="1" parent="s_AnNdae9k4vIC2xzrpU-46">
          <mxGeometry x="3.5" y="2.5" width="78" height="39" as="geometry" />
        </mxCell>
        <mxCell id="s_AnNdae9k4vIC2xzrpU-47" value="numero" style="ellipse;whiteSpace=wrap;html=1;fontStyle=4;shadow=1;" vertex="1" parent="1">
          <mxGeometry x="757" y="321" width="63" height="36" as="geometry" />
        </mxCell>
        <mxCell id="s_AnNdae9k4vIC2xzrpU-48" value="" style="endArrow=none;html=1;rounded=0;entryX=0.5;entryY=1;entryDx=0;entryDy=0;exitX=0.5;exitY=0;exitDx=0;exitDy=0;shadow=1;" edge="1" parent="1" source="s_AnNdae9k4vIC2xzrpU-4" target="s_AnNdae9k4vIC2xzrpU-30">
          <mxGeometry width="50" height="50" relative="1" as="geometry">
            <mxPoint x="292" y="417" as="sourcePoint" />
            <mxPoint x="342" y="367" as="targetPoint" />
          </mxGeometry>
        </mxCell>
        <mxCell id="s_AnNdae9k4vIC2xzrpU-49" value="" style="endArrow=none;html=1;rounded=0;entryX=1;entryY=0.5;entryDx=0;entryDy=0;exitX=0.25;exitY=0;exitDx=0;exitDy=0;shadow=1;" edge="1" parent="1" source="s_AnNdae9k4vIC2xzrpU-4" target="s_AnNdae9k4vIC2xzrpU-31">
          <mxGeometry width="50" height="50" relative="1" as="geometry">
            <mxPoint x="269" y="400" as="sourcePoint" />
            <mxPoint x="319" y="350" as="targetPoint" />
          </mxGeometry>
        </mxCell>
        <mxCell id="s_AnNdae9k4vIC2xzrpU-50" value="" style="endArrow=none;html=1;rounded=0;entryX=1;entryY=0.5;entryDx=0;entryDy=0;exitX=0;exitY=0.5;exitDx=0;exitDy=0;shadow=1;" edge="1" parent="1" source="s_AnNdae9k4vIC2xzrpU-4" target="s_AnNdae9k4vIC2xzrpU-32">
          <mxGeometry width="50" height="50" relative="1" as="geometry">
            <mxPoint x="259" y="470" as="sourcePoint" />
            <mxPoint x="309" y="420" as="targetPoint" />
          </mxGeometry>
        </mxCell>
        <mxCell id="s_AnNdae9k4vIC2xzrpU-51" value="" style="endArrow=none;html=1;rounded=0;entryX=0;entryY=0.5;entryDx=0;entryDy=0;exitX=1;exitY=0.5;exitDx=0;exitDy=0;shadow=1;" edge="1" parent="1" source="s_AnNdae9k4vIC2xzrpU-33" target="s_AnNdae9k4vIC2xzrpU-5">
          <mxGeometry width="50" height="50" relative="1" as="geometry">
            <mxPoint x="224" y="608" as="sourcePoint" />
            <mxPoint x="274" y="558" as="targetPoint" />
          </mxGeometry>
        </mxCell>
        <mxCell id="s_AnNdae9k4vIC2xzrpU-52" value="" style="endArrow=none;html=1;rounded=0;entryX=0.25;entryY=1;entryDx=0;entryDy=0;exitX=0.773;exitY=0.091;exitDx=0;exitDy=0;exitPerimeter=0;shadow=1;" edge="1" parent="1" source="s_AnNdae9k4vIC2xzrpU-34" target="s_AnNdae9k4vIC2xzrpU-5">
          <mxGeometry width="50" height="50" relative="1" as="geometry">
            <mxPoint x="285" y="630" as="sourcePoint" />
            <mxPoint x="335" y="580" as="targetPoint" />
          </mxGeometry>
        </mxCell>
        <mxCell id="s_AnNdae9k4vIC2xzrpU-53" value="" style="endArrow=none;html=1;rounded=0;exitX=0.5;exitY=0;exitDx=0;exitDy=0;entryX=0.75;entryY=1;entryDx=0;entryDy=0;shadow=1;" edge="1" parent="1" source="s_AnNdae9k4vIC2xzrpU-35" target="s_AnNdae9k4vIC2xzrpU-5">
          <mxGeometry width="50" height="50" relative="1" as="geometry">
            <mxPoint x="356" y="601" as="sourcePoint" />
            <mxPoint x="406" y="551" as="targetPoint" />
          </mxGeometry>
        </mxCell>
        <mxCell id="s_AnNdae9k4vIC2xzrpU-54" value="" style="endArrow=none;html=1;rounded=0;entryX=0;entryY=0.5;entryDx=0;entryDy=0;exitX=1;exitY=0.5;exitDx=0;exitDy=0;shadow=1;" edge="1" parent="1" source="s_AnNdae9k4vIC2xzrpU-36" target="s_AnNdae9k4vIC2xzrpU-3">
          <mxGeometry width="50" height="50" relative="1" as="geometry">
            <mxPoint x="503" y="612" as="sourcePoint" />
            <mxPoint x="553" y="562" as="targetPoint" />
          </mxGeometry>
        </mxCell>
        <mxCell id="s_AnNdae9k4vIC2xzrpU-55" value="" style="endArrow=none;html=1;rounded=0;exitX=1;exitY=0;exitDx=0;exitDy=0;entryX=0.25;entryY=1;entryDx=0;entryDy=0;shadow=1;" edge="1" parent="1" source="s_AnNdae9k4vIC2xzrpU-37" target="s_AnNdae9k4vIC2xzrpU-3">
          <mxGeometry width="50" height="50" relative="1" as="geometry">
            <mxPoint x="503" y="612" as="sourcePoint" />
            <mxPoint x="553" y="562" as="targetPoint" />
          </mxGeometry>
        </mxCell>
        <mxCell id="s_AnNdae9k4vIC2xzrpU-56" value="" style="endArrow=none;html=1;rounded=0;entryX=0.5;entryY=1;entryDx=0;entryDy=0;exitX=0.5;exitY=0;exitDx=0;exitDy=0;shadow=1;" edge="1" parent="1" source="s_AnNdae9k4vIC2xzrpU-40" target="s_AnNdae9k4vIC2xzrpU-3">
          <mxGeometry width="50" height="50" relative="1" as="geometry">
            <mxPoint x="510" y="618" as="sourcePoint" />
            <mxPoint x="560" y="568" as="targetPoint" />
          </mxGeometry>
        </mxCell>
        <mxCell id="s_AnNdae9k4vIC2xzrpU-57" value="" style="endArrow=none;html=1;rounded=0;entryX=0.75;entryY=1;entryDx=0;entryDy=0;exitX=0;exitY=0;exitDx=0;exitDy=0;shadow=1;" edge="1" parent="1" source="s_AnNdae9k4vIC2xzrpU-38" target="s_AnNdae9k4vIC2xzrpU-3">
          <mxGeometry width="50" height="50" relative="1" as="geometry">
            <mxPoint x="562" y="624" as="sourcePoint" />
            <mxPoint x="612" y="574" as="targetPoint" />
          </mxGeometry>
        </mxCell>
        <mxCell id="s_AnNdae9k4vIC2xzrpU-58" value="" style="endArrow=none;html=1;rounded=0;entryX=0;entryY=0.5;entryDx=0;entryDy=0;exitX=1;exitY=0.5;exitDx=0;exitDy=0;shadow=1;" edge="1" parent="1" source="s_AnNdae9k4vIC2xzrpU-3" target="s_AnNdae9k4vIC2xzrpU-39">
          <mxGeometry width="50" height="50" relative="1" as="geometry">
            <mxPoint x="539" y="622" as="sourcePoint" />
            <mxPoint x="589" y="572" as="targetPoint" />
          </mxGeometry>
        </mxCell>
        <mxCell id="s_AnNdae9k4vIC2xzrpU-59" value="" style="endArrow=none;html=1;rounded=0;entryX=0.5;entryY=1;entryDx=0;entryDy=0;exitX=0.454;exitY=0.004;exitDx=0;exitDy=0;exitPerimeter=0;shadow=1;" edge="1" parent="1" source="s_AnNdae9k4vIC2xzrpU-45" target="s_AnNdae9k4vIC2xzrpU-2">
          <mxGeometry width="50" height="50" relative="1" as="geometry">
            <mxPoint x="778" y="480" as="sourcePoint" />
            <mxPoint x="828" y="430" as="targetPoint" />
          </mxGeometry>
        </mxCell>
        <mxCell id="s_AnNdae9k4vIC2xzrpU-60" value="" style="endArrow=none;html=1;rounded=0;entryX=1;entryY=0.5;entryDx=0;entryDy=0;exitX=0.03;exitY=0.342;exitDx=0;exitDy=0;exitPerimeter=0;shadow=1;" edge="1" parent="1" source="s_AnNdae9k4vIC2xzrpU-43" target="s_AnNdae9k4vIC2xzrpU-2">
          <mxGeometry width="50" height="50" relative="1" as="geometry">
            <mxPoint x="812" y="432" as="sourcePoint" />
            <mxPoint x="862" y="382" as="targetPoint" />
          </mxGeometry>
        </mxCell>
        <mxCell id="s_AnNdae9k4vIC2xzrpU-61" value="" style="endArrow=none;html=1;rounded=0;entryX=0;entryY=0.5;entryDx=0;entryDy=0;exitX=1;exitY=0;exitDx=0;exitDy=0;shadow=1;" edge="1" parent="1" source="s_AnNdae9k4vIC2xzrpU-2" target="s_AnNdae9k4vIC2xzrpU-42">
          <mxGeometry width="50" height="50" relative="1" as="geometry">
            <mxPoint x="802" y="425" as="sourcePoint" />
            <mxPoint x="852" y="375" as="targetPoint" />
          </mxGeometry>
        </mxCell>
        <mxCell id="s_AnNdae9k4vIC2xzrpU-62" value="" style="endArrow=none;html=1;rounded=0;entryX=0.5;entryY=1;entryDx=0;entryDy=0;exitX=0.5;exitY=0;exitDx=0;exitDy=0;shadow=1;" edge="1" parent="1" source="s_AnNdae9k4vIC2xzrpU-2" target="s_AnNdae9k4vIC2xzrpU-47">
          <mxGeometry width="50" height="50" relative="1" as="geometry">
            <mxPoint x="757" y="409" as="sourcePoint" />
            <mxPoint x="807" y="359" as="targetPoint" />
          </mxGeometry>
        </mxCell>
      </root>
    </mxGraphModel>
  </diagram>
</mxfile>
